<?xml version="1.0" encoding="UTF-8"?>
<svg xmlns="http://www.w3.org/2000/svg" xmlns:xlink="http://www.w3.org/1999/xlink"
     width="2000" height="2000" viewBox="-200 -200 2400 2400">
<defs>
<linearGradient x1="670" y1="125" x2="1190" y2="1880" gradientUnits="userSpaceOnUse" id="xen_fill_gradient">
<stop offset="0.04" stop-color="#79D2FF" />
<stop offset="0.23" stop-color="#8EA8F0" />
<stop offset="0.5" stop-color="#FF547A" />
<stop offset="0.76" stop-color="#9B70F0" />
<stop offset="0.94" stop-color="#5F45DA" />
</linearGradient>
</defs>
<path d="M1000.0,220 C1110.0,220,1220.0,351.25,1220.0,482.5 C1220.0,613.75,1148.5,640,1099.0,640 C1049.5,640,1054.45,556.0,1000.0,556.0 C945.55,556.0,950.5,640,901.0,640 C851.5,640,780.0,613.75,780.0,482.5 C780.0,351.25,890.0,220,1000.0,220 Z" fill="none" stroke="white" stroke-width="300" stroke-linejoin="round" />
<path d="M1000.0,675 C1192.5,675,1385.0,910.0,1385.0,1145 C1385.0,1380.0,1786.2243062771024,1085.3748869447677,1850.0,1175 C1913.7756937228976,1264.6251130552323,1685.0,1325.0,1685.0,1475 C1685.0,1625.0,1913.7756937228976,1685.3748869447677,1850.0,1775 C1786.2243062771024,1864.6251130552323,1255.0,1630,1000.0,1630 C745.0,1630,213.77569372289753,1864.6251130552323,150.0,1775 C86.22430627710247,1685.3748869447677,315.0,1625.0,315.0,1475 C315.0,1325.0,86.22430627710247,1264.6251130552323,150.0,1175 C213.77569372289753,1085.3748869447677,615.0,1380.0,615.0,1145 C615.0,910.0,807.5,675,1000.0,675 Z M1000.0,1352.1 C1122.5,1352.1,1245.0,1255.8449999999998,1245.0,1159.59 C1245.0,1063.335,1165.375,949.5999999999999,1110.25,949.5999999999999 C1055.125,949.5999999999999,1060.6375,1258.9499999999998,1000.0,1258.9499999999998 C939.3625,1258.9499999999998,944.875,949.5999999999999,889.75,949.5999999999999 C834.625,949.5999999999999,755.0,1063.335,755.0,1159.59 C755.0,1255.8449999999998,877.5,1352.1,1000.0,1352.1 Z" fill="none" stroke="white" stroke-width="300" stroke-linejoin="round" fill-rule="evenodd" />
<path d="M1000.0,220 C1110.0,220,1220.0,351.25,1220.0,482.5 C1220.0,613.75,1148.5,640,1099.0,640 C1049.5,640,1054.45,556.0,1000.0,556.0 C945.55,556.0,950.5,640,901.0,640 C851.5,640,780.0,613.75,780.0,482.5 C780.0,351.25,890.0,220,1000.0,220 Z" fill="url(#xen_fill_gradient)" stroke="none" />
<path d="M1000.0,675 C1192.5,675,1385.0,910.0,1385.0,1145 C1385.0,1380.0,1786.2243062771024,1085.3748869447677,1850.0,1175 C1913.7756937228976,1264.6251130552323,1685.0,1325.0,1685.0,1475 C1685.0,1625.0,1913.7756937228976,1685.3748869447677,1850.0,1775 C1786.2243062771024,1864.6251130552323,1255.0,1630,1000.0,1630 C745.0,1630,213.77569372289753,1864.6251130552323,150.0,1775 C86.22430627710247,1685.3748869447677,315.0,1625.0,315.0,1475 C315.0,1325.0,86.22430627710247,1264.6251130552323,150.0,1175 C213.77569372289753,1085.3748869447677,615.0,1380.0,615.0,1145 C615.0,910.0,807.5,675,1000.0,675 Z M1000.0,1352.1 C1122.5,1352.1,1245.0,1255.8449999999998,1245.0,1159.59 C1245.0,1063.335,1165.375,949.5999999999999,1110.25,949.5999999999999 C1055.125,949.5999999999999,1060.6375,1258.9499999999998,1000.0,1258.9499999999998 C939.3625,1258.9499999999998,944.875,949.5999999999999,889.75,949.5999999999999 C834.625,949.5999999999999,755.0,1063.335,755.0,1159.59 C755.0,1255.8449999999998,877.5,1352.1,1000.0,1352.1 Z" fill="url(#xen_fill_gradient)" stroke="none" fill-rule="evenodd" />
</svg>
